<mxfile host="app.diagrams.net" agent="Mozilla/5.0 (Windows NT 10.0; Win64; x64) AppleWebKit/537.36 (KHTML, like Gecko) Chrome/141.0.0.0 Safari/537.36 Edg/141.0.0.0" version="28.2.5">
  <diagram id="C5RBs43oDa-KdzZeNtuy" name="Page-1">
    <mxGraphModel dx="2562" dy="1171" grid="1" gridSize="10" guides="1" tooltips="1" connect="1" arrows="1" fold="1" page="1" pageScale="1" pageWidth="827" pageHeight="1169" math="0" shadow="0">
      <root>
        <mxCell id="WIyWlLk6GJQsqaUBKTNV-0" />
        <mxCell id="WIyWlLk6GJQsqaUBKTNV-1" parent="WIyWlLk6GJQsqaUBKTNV-0" />
        <mxCell id="KvHcU47rv7xYEL3rzJnX-13" value="" style="swimlane;startSize=0;" parent="WIyWlLk6GJQsqaUBKTNV-1" vertex="1">
          <mxGeometry x="41" y="79" width="600" height="720" as="geometry" />
        </mxCell>
        <mxCell id="KvHcU47rv7xYEL3rzJnX-27" style="edgeStyle=orthogonalEdgeStyle;rounded=0;orthogonalLoop=1;jettySize=auto;html=1;entryX=1;entryY=0.5;entryDx=0;entryDy=0;" parent="KvHcU47rv7xYEL3rzJnX-13" source="KvHcU47rv7xYEL3rzJnX-29" target="KvHcU47rv7xYEL3rzJnX-33" edge="1">
          <mxGeometry relative="1" as="geometry">
            <Array as="points">
              <mxPoint x="215" y="160" />
              <mxPoint x="215" y="40" />
            </Array>
          </mxGeometry>
        </mxCell>
        <mxCell id="KvHcU47rv7xYEL3rzJnX-28" value="No" style="edgeLabel;html=1;align=center;verticalAlign=middle;resizable=0;points=[];" parent="KvHcU47rv7xYEL3rzJnX-27" vertex="1" connectable="0">
          <mxGeometry x="-0.0323" y="-2" relative="1" as="geometry">
            <mxPoint as="offset" />
          </mxGeometry>
        </mxCell>
        <mxCell id="KvHcU47rv7xYEL3rzJnX-37" value="" style="edgeStyle=orthogonalEdgeStyle;rounded=0;orthogonalLoop=1;jettySize=auto;html=1;" parent="KvHcU47rv7xYEL3rzJnX-13" source="KvHcU47rv7xYEL3rzJnX-29" target="KvHcU47rv7xYEL3rzJnX-36" edge="1">
          <mxGeometry relative="1" as="geometry" />
        </mxCell>
        <mxCell id="KvHcU47rv7xYEL3rzJnX-38" value="Yes" style="edgeLabel;html=1;align=center;verticalAlign=middle;resizable=0;points=[];" parent="KvHcU47rv7xYEL3rzJnX-37" vertex="1" connectable="0">
          <mxGeometry y="-2" relative="1" as="geometry">
            <mxPoint as="offset" />
          </mxGeometry>
        </mxCell>
        <mxCell id="KvHcU47rv7xYEL3rzJnX-29" value="Login ?" style="rhombus;whiteSpace=wrap;html=1;shadow=0;fontFamily=Helvetica;fontSize=12;align=center;strokeWidth=1;spacing=6;spacingTop=-4;" parent="KvHcU47rv7xYEL3rzJnX-13" vertex="1">
          <mxGeometry x="100" y="120" width="100" height="80" as="geometry" />
        </mxCell>
        <mxCell id="KvHcU47rv7xYEL3rzJnX-32" value="" style="edgeStyle=orthogonalEdgeStyle;rounded=0;orthogonalLoop=1;jettySize=auto;html=1;" parent="KvHcU47rv7xYEL3rzJnX-13" source="KvHcU47rv7xYEL3rzJnX-33" target="KvHcU47rv7xYEL3rzJnX-29" edge="1">
          <mxGeometry relative="1" as="geometry" />
        </mxCell>
        <mxCell id="KvHcU47rv7xYEL3rzJnX-33" value="Start" style="ellipse;whiteSpace=wrap;html=1;" parent="KvHcU47rv7xYEL3rzJnX-13" vertex="1">
          <mxGeometry x="105" y="10" width="90" height="60" as="geometry" />
        </mxCell>
        <mxCell id="KvHcU47rv7xYEL3rzJnX-57" style="edgeStyle=orthogonalEdgeStyle;rounded=0;orthogonalLoop=1;jettySize=auto;html=1;entryX=0.5;entryY=0;entryDx=0;entryDy=0;" parent="KvHcU47rv7xYEL3rzJnX-13" source="KvHcU47rv7xYEL3rzJnX-36" target="KvHcU47rv7xYEL3rzJnX-41" edge="1">
          <mxGeometry relative="1" as="geometry" />
        </mxCell>
        <mxCell id="KvHcU47rv7xYEL3rzJnX-62" value="Viewer" style="edgeLabel;html=1;align=center;verticalAlign=middle;resizable=0;points=[];" parent="KvHcU47rv7xYEL3rzJnX-57" vertex="1" connectable="0">
          <mxGeometry x="0.5636" y="-1" relative="1" as="geometry">
            <mxPoint as="offset" />
          </mxGeometry>
        </mxCell>
        <mxCell id="KvHcU47rv7xYEL3rzJnX-36" value="Check Role ?" style="rhombus;whiteSpace=wrap;html=1;shadow=0;fontFamily=Helvetica;fontSize=12;align=center;strokeWidth=1;spacing=6;spacingTop=-4;" parent="KvHcU47rv7xYEL3rzJnX-13" vertex="1">
          <mxGeometry x="100" y="260" width="100" height="80" as="geometry" />
        </mxCell>
        <mxCell id="KvHcU47rv7xYEL3rzJnX-56" style="edgeStyle=orthogonalEdgeStyle;rounded=0;orthogonalLoop=1;jettySize=auto;html=1;entryX=0.5;entryY=0;entryDx=0;entryDy=0;" parent="KvHcU47rv7xYEL3rzJnX-13" source="KvHcU47rv7xYEL3rzJnX-41" target="KvHcU47rv7xYEL3rzJnX-54" edge="1">
          <mxGeometry relative="1" as="geometry" />
        </mxCell>
        <mxCell id="KvHcU47rv7xYEL3rzJnX-41" value="&lt;div style=&quot;text-align: center;&quot;&gt;&lt;span style=&quot;background-color: transparent; color: light-dark(rgb(0, 0, 0), rgb(255, 255, 255));&quot;&gt;Home - Viewer&lt;/span&gt;&lt;/div&gt;- Latest Viewed&lt;br&gt;- Articles (View/Search/Filter)" style="whiteSpace=wrap;html=1;shadow=0;strokeWidth=1;spacing=6;spacingTop=-4;align=left;" parent="KvHcU47rv7xYEL3rzJnX-13" vertex="1">
          <mxGeometry x="60" y="450" width="180" height="80" as="geometry" />
        </mxCell>
        <mxCell id="KvHcU47rv7xYEL3rzJnX-54" value="End" style="ellipse;whiteSpace=wrap;html=1;" parent="KvHcU47rv7xYEL3rzJnX-13" vertex="1">
          <mxGeometry x="105" y="600" width="90" height="60" as="geometry" />
        </mxCell>
        <mxCell id="KvHcU47rv7xYEL3rzJnX-58" value="&lt;div&gt;&lt;span style=&quot;background-color: transparent; color: light-dark(rgb(0, 0, 0), rgb(255, 255, 255));&quot;&gt;Home - Admin&lt;/span&gt;&lt;/div&gt;&lt;span style=&quot;&quot;&gt;&lt;div style=&quot;text-align: left;&quot;&gt;&lt;span style=&quot;background-color: transparent; color: light-dark(rgb(0, 0, 0), rgb(255, 255, 255));&quot;&gt;- Dashboard Statistics&lt;/span&gt;&lt;/div&gt;&lt;/span&gt;&lt;span style=&quot;&quot;&gt;&lt;div style=&quot;text-align: left;&quot;&gt;&lt;span style=&quot;background-color: transparent; color: light-dark(rgb(0, 0, 0), rgb(255, 255, 255));&quot;&gt;- Category (Add/Edit/Delete)&lt;/span&gt;&lt;/div&gt;&lt;/span&gt;&lt;span style=&quot;&quot;&gt;&lt;div style=&quot;text-align: left;&quot;&gt;&lt;span style=&quot;background-color: transparent; color: light-dark(rgb(0, 0, 0), rgb(255, 255, 255));&quot;&gt;- Articles (Add/Edit/Delete/Search/Filter)&lt;br&gt;- Account (User management)&lt;/span&gt;&lt;/div&gt;&lt;/span&gt;" style="whiteSpace=wrap;html=1;shadow=0;strokeWidth=1;spacing=6;spacingTop=-4;" parent="KvHcU47rv7xYEL3rzJnX-13" vertex="1">
          <mxGeometry x="320" y="450" width="240" height="80" as="geometry" />
        </mxCell>
        <mxCell id="KvHcU47rv7xYEL3rzJnX-59" value="" style="endArrow=classic;html=1;rounded=0;entryX=0.5;entryY=0;entryDx=0;entryDy=0;exitX=0.667;exitY=0.5;exitDx=0;exitDy=0;exitPerimeter=0;" parent="KvHcU47rv7xYEL3rzJnX-13" target="KvHcU47rv7xYEL3rzJnX-58" edge="1">
          <mxGeometry width="50" height="50" relative="1" as="geometry">
            <mxPoint x="440.1999999999998" y="360" as="sourcePoint" />
            <mxPoint x="400" y="350" as="targetPoint" />
          </mxGeometry>
        </mxCell>
        <mxCell id="KvHcU47rv7xYEL3rzJnX-63" value="" style="endArrow=classic;html=1;rounded=0;exitX=0.5;exitY=1;exitDx=0;exitDy=0;" parent="KvHcU47rv7xYEL3rzJnX-13" source="KvHcU47rv7xYEL3rzJnX-58" edge="1">
          <mxGeometry width="50" height="50" relative="1" as="geometry">
            <mxPoint x="350" y="400" as="sourcePoint" />
            <mxPoint x="440" y="630" as="targetPoint" />
          </mxGeometry>
        </mxCell>
        <mxCell id="KvHcU47rv7xYEL3rzJnX-64" value="" style="endArrow=none;dashed=1;html=1;rounded=0;" parent="KvHcU47rv7xYEL3rzJnX-13" edge="1">
          <mxGeometry width="50" height="50" relative="1" as="geometry">
            <mxPoint x="200" y="629.5" as="sourcePoint" />
            <mxPoint x="440" y="629.5" as="targetPoint" />
            <Array as="points">
              <mxPoint x="200" y="629.5" />
            </Array>
          </mxGeometry>
        </mxCell>
        <mxCell id="KvHcU47rv7xYEL3rzJnX-60" value="" style="endArrow=none;dashed=1;html=1;rounded=0;" parent="KvHcU47rv7xYEL3rzJnX-13" edge="1">
          <mxGeometry width="50" height="50" relative="1" as="geometry">
            <mxPoint x="149" y="359.5" as="sourcePoint" />
            <mxPoint x="439" y="359.5" as="targetPoint" />
          </mxGeometry>
        </mxCell>
        <mxCell id="KvHcU47rv7xYEL3rzJnX-61" value="Admin" style="edgeLabel;html=1;align=center;verticalAlign=middle;resizable=0;points=[];" parent="KvHcU47rv7xYEL3rzJnX-60" vertex="1" connectable="0">
          <mxGeometry x="-0.0138" y="-2" relative="1" as="geometry">
            <mxPoint as="offset" />
          </mxGeometry>
        </mxCell>
        <mxCell id="snpb0dGP6pKVzHkLgJxg-0" value="&lt;font style=&quot;font-size: 24px;&quot;&gt;Knowledge Management System&lt;/font&gt;" style="text;html=1;align=left;verticalAlign=middle;whiteSpace=wrap;rounded=0;" vertex="1" parent="WIyWlLk6GJQsqaUBKTNV-1">
          <mxGeometry x="40" y="10" width="380" height="30" as="geometry" />
        </mxCell>
        <mxCell id="snpb0dGP6pKVzHkLgJxg-1" value="Admin" style="swimlane;whiteSpace=wrap;html=1;" vertex="1" parent="WIyWlLk6GJQsqaUBKTNV-1">
          <mxGeometry x="40" y="1260" width="320" height="480" as="geometry">
            <mxRectangle x="430" y="510" width="140" height="30" as="alternateBounds" />
          </mxGeometry>
        </mxCell>
        <mxCell id="snpb0dGP6pKVzHkLgJxg-2" value="" style="edgeStyle=orthogonalEdgeStyle;rounded=0;orthogonalLoop=1;jettySize=auto;html=1;" edge="1" parent="snpb0dGP6pKVzHkLgJxg-1" source="snpb0dGP6pKVzHkLgJxg-6" target="snpb0dGP6pKVzHkLgJxg-8">
          <mxGeometry relative="1" as="geometry" />
        </mxCell>
        <mxCell id="snpb0dGP6pKVzHkLgJxg-3" value="Yes" style="edgeLabel;html=1;align=center;verticalAlign=middle;resizable=0;points=[];" vertex="1" connectable="0" parent="snpb0dGP6pKVzHkLgJxg-2">
          <mxGeometry x="-0.4" y="-1" relative="1" as="geometry">
            <mxPoint as="offset" />
          </mxGeometry>
        </mxCell>
        <mxCell id="snpb0dGP6pKVzHkLgJxg-4" style="edgeStyle=orthogonalEdgeStyle;rounded=0;orthogonalLoop=1;jettySize=auto;html=1;entryX=1;entryY=0.5;entryDx=0;entryDy=0;" edge="1" parent="snpb0dGP6pKVzHkLgJxg-1" source="snpb0dGP6pKVzHkLgJxg-6" target="snpb0dGP6pKVzHkLgJxg-10">
          <mxGeometry relative="1" as="geometry">
            <Array as="points">
              <mxPoint x="215" y="190" />
              <mxPoint x="215" y="70" />
            </Array>
          </mxGeometry>
        </mxCell>
        <mxCell id="snpb0dGP6pKVzHkLgJxg-5" value="No" style="edgeLabel;html=1;align=center;verticalAlign=middle;resizable=0;points=[];" vertex="1" connectable="0" parent="snpb0dGP6pKVzHkLgJxg-4">
          <mxGeometry x="-0.0323" y="-2" relative="1" as="geometry">
            <mxPoint as="offset" />
          </mxGeometry>
        </mxCell>
        <mxCell id="snpb0dGP6pKVzHkLgJxg-6" value="Login ?" style="rhombus;whiteSpace=wrap;html=1;shadow=0;fontFamily=Helvetica;fontSize=12;align=center;strokeWidth=1;spacing=6;spacingTop=-4;" vertex="1" parent="snpb0dGP6pKVzHkLgJxg-1">
          <mxGeometry x="100" y="150" width="100" height="80" as="geometry" />
        </mxCell>
        <mxCell id="snpb0dGP6pKVzHkLgJxg-7" value="" style="edgeStyle=orthogonalEdgeStyle;rounded=0;orthogonalLoop=1;jettySize=auto;html=1;" edge="1" parent="snpb0dGP6pKVzHkLgJxg-1" source="snpb0dGP6pKVzHkLgJxg-8" target="snpb0dGP6pKVzHkLgJxg-11">
          <mxGeometry relative="1" as="geometry" />
        </mxCell>
        <mxCell id="snpb0dGP6pKVzHkLgJxg-8" value="Home - Dashboard Statistic" style="whiteSpace=wrap;html=1;shadow=0;strokeWidth=1;spacing=6;spacingTop=-4;" vertex="1" parent="snpb0dGP6pKVzHkLgJxg-1">
          <mxGeometry x="90" y="280" width="120" height="60" as="geometry" />
        </mxCell>
        <mxCell id="snpb0dGP6pKVzHkLgJxg-9" value="" style="edgeStyle=orthogonalEdgeStyle;rounded=0;orthogonalLoop=1;jettySize=auto;html=1;" edge="1" parent="snpb0dGP6pKVzHkLgJxg-1" source="snpb0dGP6pKVzHkLgJxg-10" target="snpb0dGP6pKVzHkLgJxg-6">
          <mxGeometry relative="1" as="geometry" />
        </mxCell>
        <mxCell id="snpb0dGP6pKVzHkLgJxg-10" value="Start" style="ellipse;whiteSpace=wrap;html=1;" vertex="1" parent="snpb0dGP6pKVzHkLgJxg-1">
          <mxGeometry x="105" y="40" width="90" height="60" as="geometry" />
        </mxCell>
        <mxCell id="snpb0dGP6pKVzHkLgJxg-11" value="End" style="ellipse;whiteSpace=wrap;html=1;" vertex="1" parent="snpb0dGP6pKVzHkLgJxg-1">
          <mxGeometry x="105" y="390" width="90" height="60" as="geometry" />
        </mxCell>
        <mxCell id="snpb0dGP6pKVzHkLgJxg-12" value="Viewer" style="swimlane;whiteSpace=wrap;html=1;" vertex="1" parent="WIyWlLk6GJQsqaUBKTNV-1">
          <mxGeometry x="440" y="1260" width="320" height="480" as="geometry">
            <mxRectangle x="430" y="510" width="140" height="30" as="alternateBounds" />
          </mxGeometry>
        </mxCell>
        <mxCell id="snpb0dGP6pKVzHkLgJxg-13" value="" style="edgeStyle=orthogonalEdgeStyle;rounded=0;orthogonalLoop=1;jettySize=auto;html=1;" edge="1" parent="snpb0dGP6pKVzHkLgJxg-12" source="snpb0dGP6pKVzHkLgJxg-17" target="snpb0dGP6pKVzHkLgJxg-19">
          <mxGeometry relative="1" as="geometry" />
        </mxCell>
        <mxCell id="snpb0dGP6pKVzHkLgJxg-14" value="Yes" style="edgeLabel;html=1;align=center;verticalAlign=middle;resizable=0;points=[];" vertex="1" connectable="0" parent="snpb0dGP6pKVzHkLgJxg-13">
          <mxGeometry x="-0.4" y="-1" relative="1" as="geometry">
            <mxPoint as="offset" />
          </mxGeometry>
        </mxCell>
        <mxCell id="snpb0dGP6pKVzHkLgJxg-15" style="edgeStyle=orthogonalEdgeStyle;rounded=0;orthogonalLoop=1;jettySize=auto;html=1;entryX=1;entryY=0.5;entryDx=0;entryDy=0;" edge="1" parent="snpb0dGP6pKVzHkLgJxg-12" source="snpb0dGP6pKVzHkLgJxg-17" target="snpb0dGP6pKVzHkLgJxg-21">
          <mxGeometry relative="1" as="geometry">
            <Array as="points">
              <mxPoint x="215" y="190" />
              <mxPoint x="215" y="70" />
            </Array>
          </mxGeometry>
        </mxCell>
        <mxCell id="snpb0dGP6pKVzHkLgJxg-16" value="No" style="edgeLabel;html=1;align=center;verticalAlign=middle;resizable=0;points=[];" vertex="1" connectable="0" parent="snpb0dGP6pKVzHkLgJxg-15">
          <mxGeometry x="-0.0323" y="-2" relative="1" as="geometry">
            <mxPoint as="offset" />
          </mxGeometry>
        </mxCell>
        <mxCell id="snpb0dGP6pKVzHkLgJxg-17" value="Login ?" style="rhombus;whiteSpace=wrap;html=1;shadow=0;fontFamily=Helvetica;fontSize=12;align=center;strokeWidth=1;spacing=6;spacingTop=-4;" vertex="1" parent="snpb0dGP6pKVzHkLgJxg-12">
          <mxGeometry x="100" y="150" width="100" height="80" as="geometry" />
        </mxCell>
        <mxCell id="snpb0dGP6pKVzHkLgJxg-18" value="" style="edgeStyle=orthogonalEdgeStyle;rounded=0;orthogonalLoop=1;jettySize=auto;html=1;" edge="1" parent="snpb0dGP6pKVzHkLgJxg-12" source="snpb0dGP6pKVzHkLgJxg-19" target="snpb0dGP6pKVzHkLgJxg-22">
          <mxGeometry relative="1" as="geometry" />
        </mxCell>
        <mxCell id="snpb0dGP6pKVzHkLgJxg-19" value="Home - Latest Viewed" style="whiteSpace=wrap;html=1;shadow=0;strokeWidth=1;spacing=6;spacingTop=-4;" vertex="1" parent="snpb0dGP6pKVzHkLgJxg-12">
          <mxGeometry x="90" y="280" width="120" height="60" as="geometry" />
        </mxCell>
        <mxCell id="snpb0dGP6pKVzHkLgJxg-20" value="" style="edgeStyle=orthogonalEdgeStyle;rounded=0;orthogonalLoop=1;jettySize=auto;html=1;" edge="1" parent="snpb0dGP6pKVzHkLgJxg-12" source="snpb0dGP6pKVzHkLgJxg-21" target="snpb0dGP6pKVzHkLgJxg-17">
          <mxGeometry relative="1" as="geometry" />
        </mxCell>
        <mxCell id="snpb0dGP6pKVzHkLgJxg-21" value="Start" style="ellipse;whiteSpace=wrap;html=1;" vertex="1" parent="snpb0dGP6pKVzHkLgJxg-12">
          <mxGeometry x="105" y="40" width="90" height="60" as="geometry" />
        </mxCell>
        <mxCell id="snpb0dGP6pKVzHkLgJxg-22" value="End" style="ellipse;whiteSpace=wrap;html=1;" vertex="1" parent="snpb0dGP6pKVzHkLgJxg-12">
          <mxGeometry x="105" y="390" width="90" height="60" as="geometry" />
        </mxCell>
        <mxCell id="snpb0dGP6pKVzHkLgJxg-23" value="&lt;font style=&quot;font-size: 24px;&quot;&gt;1. Home&lt;/font&gt;" style="text;html=1;align=left;verticalAlign=middle;whiteSpace=wrap;rounded=0;" vertex="1" parent="WIyWlLk6GJQsqaUBKTNV-1">
          <mxGeometry x="40" y="1210" width="120" height="30" as="geometry" />
        </mxCell>
        <mxCell id="snpb0dGP6pKVzHkLgJxg-24" value="Admin" style="swimlane;whiteSpace=wrap;html=1;" vertex="1" parent="WIyWlLk6GJQsqaUBKTNV-1">
          <mxGeometry x="40" y="2440" width="450" height="720" as="geometry">
            <mxRectangle x="430" y="510" width="140" height="30" as="alternateBounds" />
          </mxGeometry>
        </mxCell>
        <mxCell id="snpb0dGP6pKVzHkLgJxg-25" value="" style="edgeStyle=orthogonalEdgeStyle;rounded=0;orthogonalLoop=1;jettySize=auto;html=1;" edge="1" parent="snpb0dGP6pKVzHkLgJxg-24" source="snpb0dGP6pKVzHkLgJxg-29" target="snpb0dGP6pKVzHkLgJxg-31">
          <mxGeometry relative="1" as="geometry" />
        </mxCell>
        <mxCell id="snpb0dGP6pKVzHkLgJxg-26" value="Yes" style="edgeLabel;html=1;align=center;verticalAlign=middle;resizable=0;points=[];" vertex="1" connectable="0" parent="snpb0dGP6pKVzHkLgJxg-25">
          <mxGeometry x="-0.4" y="-1" relative="1" as="geometry">
            <mxPoint as="offset" />
          </mxGeometry>
        </mxCell>
        <mxCell id="snpb0dGP6pKVzHkLgJxg-27" style="edgeStyle=orthogonalEdgeStyle;rounded=0;orthogonalLoop=1;jettySize=auto;html=1;entryX=1;entryY=0.5;entryDx=0;entryDy=0;" edge="1" parent="snpb0dGP6pKVzHkLgJxg-24" source="snpb0dGP6pKVzHkLgJxg-29" target="snpb0dGP6pKVzHkLgJxg-33">
          <mxGeometry relative="1" as="geometry">
            <Array as="points">
              <mxPoint x="215" y="190" />
              <mxPoint x="215" y="70" />
            </Array>
          </mxGeometry>
        </mxCell>
        <mxCell id="snpb0dGP6pKVzHkLgJxg-28" value="No" style="edgeLabel;html=1;align=center;verticalAlign=middle;resizable=0;points=[];" vertex="1" connectable="0" parent="snpb0dGP6pKVzHkLgJxg-27">
          <mxGeometry x="-0.0323" y="-2" relative="1" as="geometry">
            <mxPoint as="offset" />
          </mxGeometry>
        </mxCell>
        <mxCell id="snpb0dGP6pKVzHkLgJxg-29" value="Login ?" style="rhombus;whiteSpace=wrap;html=1;shadow=0;fontFamily=Helvetica;fontSize=12;align=center;strokeWidth=1;spacing=6;spacingTop=-4;" vertex="1" parent="snpb0dGP6pKVzHkLgJxg-24">
          <mxGeometry x="100" y="150" width="100" height="80" as="geometry" />
        </mxCell>
        <mxCell id="snpb0dGP6pKVzHkLgJxg-30" value="" style="edgeStyle=orthogonalEdgeStyle;rounded=0;orthogonalLoop=1;jettySize=auto;html=1;" edge="1" parent="snpb0dGP6pKVzHkLgJxg-24" source="snpb0dGP6pKVzHkLgJxg-31" target="snpb0dGP6pKVzHkLgJxg-35">
          <mxGeometry relative="1" as="geometry" />
        </mxCell>
        <mxCell id="snpb0dGP6pKVzHkLgJxg-31" value="Home -&amp;gt; Category Menu" style="whiteSpace=wrap;html=1;shadow=0;strokeWidth=1;spacing=6;spacingTop=-4;" vertex="1" parent="snpb0dGP6pKVzHkLgJxg-24">
          <mxGeometry x="90" y="280" width="120" height="60" as="geometry" />
        </mxCell>
        <mxCell id="snpb0dGP6pKVzHkLgJxg-32" value="" style="edgeStyle=orthogonalEdgeStyle;rounded=0;orthogonalLoop=1;jettySize=auto;html=1;" edge="1" parent="snpb0dGP6pKVzHkLgJxg-24" source="snpb0dGP6pKVzHkLgJxg-33" target="snpb0dGP6pKVzHkLgJxg-29">
          <mxGeometry relative="1" as="geometry" />
        </mxCell>
        <mxCell id="snpb0dGP6pKVzHkLgJxg-33" value="Start" style="ellipse;whiteSpace=wrap;html=1;" vertex="1" parent="snpb0dGP6pKVzHkLgJxg-24">
          <mxGeometry x="105" y="40" width="90" height="60" as="geometry" />
        </mxCell>
        <mxCell id="snpb0dGP6pKVzHkLgJxg-34" style="edgeStyle=orthogonalEdgeStyle;rounded=0;orthogonalLoop=1;jettySize=auto;html=1;entryX=0.5;entryY=0;entryDx=0;entryDy=0;" edge="1" parent="snpb0dGP6pKVzHkLgJxg-24" source="snpb0dGP6pKVzHkLgJxg-35" target="snpb0dGP6pKVzHkLgJxg-36">
          <mxGeometry relative="1" as="geometry" />
        </mxCell>
        <mxCell id="snpb0dGP6pKVzHkLgJxg-35" value="Actions ?" style="rhombus;whiteSpace=wrap;html=1;shadow=0;strokeWidth=1;spacing=6;spacingTop=-4;" vertex="1" parent="snpb0dGP6pKVzHkLgJxg-24">
          <mxGeometry x="110" y="400" width="80" height="80" as="geometry" />
        </mxCell>
        <mxCell id="snpb0dGP6pKVzHkLgJxg-36" value="End" style="ellipse;whiteSpace=wrap;html=1;" vertex="1" parent="snpb0dGP6pKVzHkLgJxg-24">
          <mxGeometry x="105" y="650" width="90" height="60" as="geometry" />
        </mxCell>
        <mxCell id="snpb0dGP6pKVzHkLgJxg-37" value="Add New Category -&amp;gt; Save" style="whiteSpace=wrap;html=1;shadow=0;strokeWidth=1;spacing=6;spacingTop=-4;" vertex="1" parent="snpb0dGP6pKVzHkLgJxg-24">
          <mxGeometry x="250" y="480" width="160" height="40" as="geometry" />
        </mxCell>
        <mxCell id="snpb0dGP6pKVzHkLgJxg-38" value="Edit Category -&amp;gt; Save" style="whiteSpace=wrap;html=1;shadow=0;strokeWidth=1;spacing=6;spacingTop=-4;" vertex="1" parent="snpb0dGP6pKVzHkLgJxg-24">
          <mxGeometry x="250" y="535" width="160" height="40" as="geometry" />
        </mxCell>
        <mxCell id="snpb0dGP6pKVzHkLgJxg-39" value="" style="endArrow=none;dashed=1;html=1;rounded=0;" edge="1" parent="snpb0dGP6pKVzHkLgJxg-24">
          <mxGeometry width="50" height="50" relative="1" as="geometry">
            <mxPoint x="150" y="554.5" as="sourcePoint" />
            <mxPoint x="250" y="554.5" as="targetPoint" />
          </mxGeometry>
        </mxCell>
        <mxCell id="snpb0dGP6pKVzHkLgJxg-40" value="Text" style="edgeLabel;html=1;align=center;verticalAlign=middle;resizable=0;points=[];" vertex="1" connectable="0" parent="snpb0dGP6pKVzHkLgJxg-39">
          <mxGeometry x="0.02" y="-2" relative="1" as="geometry">
            <mxPoint as="offset" />
          </mxGeometry>
        </mxCell>
        <mxCell id="snpb0dGP6pKVzHkLgJxg-41" value="Edit" style="edgeLabel;html=1;align=center;verticalAlign=middle;resizable=0;points=[];" vertex="1" connectable="0" parent="snpb0dGP6pKVzHkLgJxg-39">
          <mxGeometry x="0.04" y="-3" relative="1" as="geometry">
            <mxPoint as="offset" />
          </mxGeometry>
        </mxCell>
        <mxCell id="snpb0dGP6pKVzHkLgJxg-42" value="Delete Category -&amp;gt; Confirm" style="whiteSpace=wrap;html=1;shadow=0;strokeWidth=1;spacing=6;spacingTop=-4;" vertex="1" parent="snpb0dGP6pKVzHkLgJxg-24">
          <mxGeometry x="250" y="590" width="160" height="40" as="geometry" />
        </mxCell>
        <mxCell id="snpb0dGP6pKVzHkLgJxg-43" value="" style="endArrow=none;dashed=1;html=1;rounded=0;" edge="1" parent="snpb0dGP6pKVzHkLgJxg-24">
          <mxGeometry width="50" height="50" relative="1" as="geometry">
            <mxPoint x="150" y="609.5" as="sourcePoint" />
            <mxPoint x="250" y="609.5" as="targetPoint" />
          </mxGeometry>
        </mxCell>
        <mxCell id="snpb0dGP6pKVzHkLgJxg-44" value="Text" style="edgeLabel;html=1;align=center;verticalAlign=middle;resizable=0;points=[];" vertex="1" connectable="0" parent="snpb0dGP6pKVzHkLgJxg-43">
          <mxGeometry x="0.02" y="-2" relative="1" as="geometry">
            <mxPoint as="offset" />
          </mxGeometry>
        </mxCell>
        <mxCell id="snpb0dGP6pKVzHkLgJxg-45" value="Delete" style="edgeLabel;html=1;align=center;verticalAlign=middle;resizable=0;points=[];" vertex="1" connectable="0" parent="snpb0dGP6pKVzHkLgJxg-43">
          <mxGeometry x="0.04" y="-3" relative="1" as="geometry">
            <mxPoint as="offset" />
          </mxGeometry>
        </mxCell>
        <mxCell id="snpb0dGP6pKVzHkLgJxg-46" value="" style="endArrow=none;dashed=1;html=1;rounded=0;" edge="1" parent="snpb0dGP6pKVzHkLgJxg-24">
          <mxGeometry width="50" height="50" relative="1" as="geometry">
            <mxPoint x="150" y="499.5" as="sourcePoint" />
            <mxPoint x="250" y="499.5" as="targetPoint" />
          </mxGeometry>
        </mxCell>
        <mxCell id="snpb0dGP6pKVzHkLgJxg-47" value="Text" style="edgeLabel;html=1;align=center;verticalAlign=middle;resizable=0;points=[];" vertex="1" connectable="0" parent="snpb0dGP6pKVzHkLgJxg-46">
          <mxGeometry x="0.02" y="-2" relative="1" as="geometry">
            <mxPoint as="offset" />
          </mxGeometry>
        </mxCell>
        <mxCell id="snpb0dGP6pKVzHkLgJxg-48" value="Add" style="edgeLabel;html=1;align=center;verticalAlign=middle;resizable=0;points=[];" vertex="1" connectable="0" parent="snpb0dGP6pKVzHkLgJxg-46">
          <mxGeometry x="0.04" y="-3" relative="1" as="geometry">
            <mxPoint as="offset" />
          </mxGeometry>
        </mxCell>
        <mxCell id="snpb0dGP6pKVzHkLgJxg-49" value="&lt;font style=&quot;font-size: 24px;&quot;&gt;2. Category&lt;/font&gt;" style="text;html=1;align=left;verticalAlign=middle;whiteSpace=wrap;rounded=0;" vertex="1" parent="WIyWlLk6GJQsqaUBKTNV-1">
          <mxGeometry x="40" y="2370" width="140" height="30" as="geometry" />
        </mxCell>
        <mxCell id="snpb0dGP6pKVzHkLgJxg-51" value="Admin" style="swimlane;whiteSpace=wrap;html=1;" vertex="1" parent="WIyWlLk6GJQsqaUBKTNV-1">
          <mxGeometry x="40" y="3600" width="369" height="840" as="geometry">
            <mxRectangle x="430" y="510" width="140" height="30" as="alternateBounds" />
          </mxGeometry>
        </mxCell>
        <mxCell id="snpb0dGP6pKVzHkLgJxg-52" value="" style="edgeStyle=orthogonalEdgeStyle;rounded=0;orthogonalLoop=1;jettySize=auto;html=1;" edge="1" parent="snpb0dGP6pKVzHkLgJxg-51" source="snpb0dGP6pKVzHkLgJxg-56" target="snpb0dGP6pKVzHkLgJxg-58">
          <mxGeometry relative="1" as="geometry" />
        </mxCell>
        <mxCell id="snpb0dGP6pKVzHkLgJxg-53" value="Yes" style="edgeLabel;html=1;align=center;verticalAlign=middle;resizable=0;points=[];" vertex="1" connectable="0" parent="snpb0dGP6pKVzHkLgJxg-52">
          <mxGeometry x="-0.4" y="-1" relative="1" as="geometry">
            <mxPoint as="offset" />
          </mxGeometry>
        </mxCell>
        <mxCell id="snpb0dGP6pKVzHkLgJxg-54" style="edgeStyle=orthogonalEdgeStyle;rounded=0;orthogonalLoop=1;jettySize=auto;html=1;entryX=1;entryY=0.5;entryDx=0;entryDy=0;" edge="1" parent="snpb0dGP6pKVzHkLgJxg-51" source="snpb0dGP6pKVzHkLgJxg-56">
          <mxGeometry relative="1" as="geometry">
            <Array as="points">
              <mxPoint x="145" y="190" />
              <mxPoint x="145" y="70" />
            </Array>
            <mxPoint x="125" y="70" as="targetPoint" />
          </mxGeometry>
        </mxCell>
        <mxCell id="snpb0dGP6pKVzHkLgJxg-55" value="No" style="edgeLabel;html=1;align=center;verticalAlign=middle;resizable=0;points=[];" vertex="1" connectable="0" parent="snpb0dGP6pKVzHkLgJxg-54">
          <mxGeometry x="-0.0323" y="-2" relative="1" as="geometry">
            <mxPoint as="offset" />
          </mxGeometry>
        </mxCell>
        <mxCell id="snpb0dGP6pKVzHkLgJxg-56" value="Login ?" style="rhombus;whiteSpace=wrap;html=1;shadow=0;fontFamily=Helvetica;fontSize=12;align=center;strokeWidth=1;spacing=6;spacingTop=-4;" vertex="1" parent="snpb0dGP6pKVzHkLgJxg-51">
          <mxGeometry x="30" y="150" width="100" height="80" as="geometry" />
        </mxCell>
        <mxCell id="snpb0dGP6pKVzHkLgJxg-57" value="" style="edgeStyle=orthogonalEdgeStyle;rounded=0;orthogonalLoop=1;jettySize=auto;html=1;" edge="1" parent="snpb0dGP6pKVzHkLgJxg-51" source="snpb0dGP6pKVzHkLgJxg-58" target="snpb0dGP6pKVzHkLgJxg-62">
          <mxGeometry relative="1" as="geometry" />
        </mxCell>
        <mxCell id="snpb0dGP6pKVzHkLgJxg-58" value="Home -&amp;gt; Articles Menu" style="whiteSpace=wrap;html=1;shadow=0;strokeWidth=1;spacing=6;spacingTop=-4;" vertex="1" parent="snpb0dGP6pKVzHkLgJxg-51">
          <mxGeometry x="20" y="280" width="120" height="60" as="geometry" />
        </mxCell>
        <mxCell id="snpb0dGP6pKVzHkLgJxg-59" value="" style="edgeStyle=orthogonalEdgeStyle;rounded=0;orthogonalLoop=1;jettySize=auto;html=1;" edge="1" parent="snpb0dGP6pKVzHkLgJxg-51" target="snpb0dGP6pKVzHkLgJxg-56">
          <mxGeometry relative="1" as="geometry">
            <mxPoint x="80" y="100" as="sourcePoint" />
          </mxGeometry>
        </mxCell>
        <mxCell id="snpb0dGP6pKVzHkLgJxg-60" value="Start" style="ellipse;whiteSpace=wrap;html=1;" vertex="1" parent="snpb0dGP6pKVzHkLgJxg-51">
          <mxGeometry x="37" y="40" width="90" height="60" as="geometry" />
        </mxCell>
        <mxCell id="snpb0dGP6pKVzHkLgJxg-61" style="edgeStyle=orthogonalEdgeStyle;rounded=0;orthogonalLoop=1;jettySize=auto;html=1;entryX=0.5;entryY=0;entryDx=0;entryDy=0;" edge="1" parent="snpb0dGP6pKVzHkLgJxg-51" source="snpb0dGP6pKVzHkLgJxg-62" target="snpb0dGP6pKVzHkLgJxg-63">
          <mxGeometry relative="1" as="geometry" />
        </mxCell>
        <mxCell id="snpb0dGP6pKVzHkLgJxg-62" value="Actions ?" style="rhombus;whiteSpace=wrap;html=1;shadow=0;strokeWidth=1;spacing=6;spacingTop=-4;" vertex="1" parent="snpb0dGP6pKVzHkLgJxg-51">
          <mxGeometry x="40" y="400" width="80" height="80" as="geometry" />
        </mxCell>
        <mxCell id="snpb0dGP6pKVzHkLgJxg-63" value="End" style="ellipse;whiteSpace=wrap;html=1;" vertex="1" parent="snpb0dGP6pKVzHkLgJxg-51">
          <mxGeometry x="35" y="760" width="90" height="60" as="geometry" />
        </mxCell>
        <mxCell id="snpb0dGP6pKVzHkLgJxg-64" value="Add New Articles -&amp;gt; Save" style="whiteSpace=wrap;html=1;shadow=0;strokeWidth=1;spacing=6;spacingTop=-4;" vertex="1" parent="snpb0dGP6pKVzHkLgJxg-51">
          <mxGeometry x="180" y="480" width="180" height="40" as="geometry" />
        </mxCell>
        <mxCell id="snpb0dGP6pKVzHkLgJxg-65" value="Edit Articles -&amp;gt; Save" style="whiteSpace=wrap;html=1;shadow=0;strokeWidth=1;spacing=6;spacingTop=-4;" vertex="1" parent="snpb0dGP6pKVzHkLgJxg-51">
          <mxGeometry x="180" y="535" width="180" height="40" as="geometry" />
        </mxCell>
        <mxCell id="snpb0dGP6pKVzHkLgJxg-66" value="" style="endArrow=none;dashed=1;html=1;rounded=0;" edge="1" parent="snpb0dGP6pKVzHkLgJxg-51">
          <mxGeometry width="50" height="50" relative="1" as="geometry">
            <mxPoint x="80" y="554.5" as="sourcePoint" />
            <mxPoint x="180" y="554.5" as="targetPoint" />
          </mxGeometry>
        </mxCell>
        <mxCell id="snpb0dGP6pKVzHkLgJxg-67" value="Text" style="edgeLabel;html=1;align=center;verticalAlign=middle;resizable=0;points=[];" vertex="1" connectable="0" parent="snpb0dGP6pKVzHkLgJxg-66">
          <mxGeometry x="0.02" y="-2" relative="1" as="geometry">
            <mxPoint as="offset" />
          </mxGeometry>
        </mxCell>
        <mxCell id="snpb0dGP6pKVzHkLgJxg-68" value="Edit" style="edgeLabel;html=1;align=center;verticalAlign=middle;resizable=0;points=[];" vertex="1" connectable="0" parent="snpb0dGP6pKVzHkLgJxg-66">
          <mxGeometry x="0.04" y="-3" relative="1" as="geometry">
            <mxPoint as="offset" />
          </mxGeometry>
        </mxCell>
        <mxCell id="snpb0dGP6pKVzHkLgJxg-69" value="Delete Articles&amp;nbsp;&lt;span style=&quot;background-color: transparent; color: light-dark(rgb(0, 0, 0), rgb(255, 255, 255));&quot;&gt;-&amp;gt; Confirm&lt;/span&gt;" style="whiteSpace=wrap;html=1;shadow=0;strokeWidth=1;spacing=6;spacingTop=-4;" vertex="1" parent="snpb0dGP6pKVzHkLgJxg-51">
          <mxGeometry x="180" y="587" width="180" height="40" as="geometry" />
        </mxCell>
        <mxCell id="snpb0dGP6pKVzHkLgJxg-70" value="" style="endArrow=none;dashed=1;html=1;rounded=0;" edge="1" parent="snpb0dGP6pKVzHkLgJxg-51">
          <mxGeometry width="50" height="50" relative="1" as="geometry">
            <mxPoint x="80" y="606.5" as="sourcePoint" />
            <mxPoint x="180" y="606.5" as="targetPoint" />
          </mxGeometry>
        </mxCell>
        <mxCell id="snpb0dGP6pKVzHkLgJxg-71" value="Text" style="edgeLabel;html=1;align=center;verticalAlign=middle;resizable=0;points=[];" vertex="1" connectable="0" parent="snpb0dGP6pKVzHkLgJxg-70">
          <mxGeometry x="0.02" y="-2" relative="1" as="geometry">
            <mxPoint as="offset" />
          </mxGeometry>
        </mxCell>
        <mxCell id="snpb0dGP6pKVzHkLgJxg-72" value="Delete" style="edgeLabel;html=1;align=center;verticalAlign=middle;resizable=0;points=[];" vertex="1" connectable="0" parent="snpb0dGP6pKVzHkLgJxg-70">
          <mxGeometry x="0.04" y="-3" relative="1" as="geometry">
            <mxPoint as="offset" />
          </mxGeometry>
        </mxCell>
        <mxCell id="snpb0dGP6pKVzHkLgJxg-73" value="" style="endArrow=none;dashed=1;html=1;rounded=0;" edge="1" parent="snpb0dGP6pKVzHkLgJxg-51">
          <mxGeometry width="50" height="50" relative="1" as="geometry">
            <mxPoint x="80" y="499.5" as="sourcePoint" />
            <mxPoint x="180" y="499.5" as="targetPoint" />
          </mxGeometry>
        </mxCell>
        <mxCell id="snpb0dGP6pKVzHkLgJxg-74" value="Text" style="edgeLabel;html=1;align=center;verticalAlign=middle;resizable=0;points=[];" vertex="1" connectable="0" parent="snpb0dGP6pKVzHkLgJxg-73">
          <mxGeometry x="0.02" y="-2" relative="1" as="geometry">
            <mxPoint as="offset" />
          </mxGeometry>
        </mxCell>
        <mxCell id="snpb0dGP6pKVzHkLgJxg-75" value="Add" style="edgeLabel;html=1;align=center;verticalAlign=middle;resizable=0;points=[];" vertex="1" connectable="0" parent="snpb0dGP6pKVzHkLgJxg-73">
          <mxGeometry x="0.04" y="-3" relative="1" as="geometry">
            <mxPoint as="offset" />
          </mxGeometry>
        </mxCell>
        <mxCell id="snpb0dGP6pKVzHkLgJxg-76" value="Search Articles&amp;nbsp;&lt;span style=&quot;background-color: transparent; color: light-dark(rgb(0, 0, 0), rgb(255, 255, 255));&quot;&gt;-&amp;gt; Result List&lt;/span&gt;" style="whiteSpace=wrap;html=1;shadow=0;strokeWidth=1;spacing=6;spacingTop=-4;" vertex="1" parent="snpb0dGP6pKVzHkLgJxg-51">
          <mxGeometry x="180" y="640" width="180" height="40" as="geometry" />
        </mxCell>
        <mxCell id="snpb0dGP6pKVzHkLgJxg-77" value="" style="endArrow=none;dashed=1;html=1;rounded=0;" edge="1" parent="snpb0dGP6pKVzHkLgJxg-51">
          <mxGeometry width="50" height="50" relative="1" as="geometry">
            <mxPoint x="80" y="659.5" as="sourcePoint" />
            <mxPoint x="180" y="659.5" as="targetPoint" />
          </mxGeometry>
        </mxCell>
        <mxCell id="snpb0dGP6pKVzHkLgJxg-78" value="Text" style="edgeLabel;html=1;align=center;verticalAlign=middle;resizable=0;points=[];" vertex="1" connectable="0" parent="snpb0dGP6pKVzHkLgJxg-77">
          <mxGeometry x="0.02" y="-2" relative="1" as="geometry">
            <mxPoint as="offset" />
          </mxGeometry>
        </mxCell>
        <mxCell id="snpb0dGP6pKVzHkLgJxg-79" value="Search" style="edgeLabel;html=1;align=center;verticalAlign=middle;resizable=0;points=[];" vertex="1" connectable="0" parent="snpb0dGP6pKVzHkLgJxg-77">
          <mxGeometry x="0.04" y="-3" relative="1" as="geometry">
            <mxPoint as="offset" />
          </mxGeometry>
        </mxCell>
        <mxCell id="snpb0dGP6pKVzHkLgJxg-80" value="Filter by Category&lt;span style=&quot;background-color: transparent; color: light-dark(rgb(0, 0, 0), rgb(255, 255, 255));&quot;&gt;&amp;nbsp;-&amp;gt; Result List&lt;/span&gt;" style="whiteSpace=wrap;html=1;shadow=0;strokeWidth=1;spacing=6;spacingTop=-4;" vertex="1" parent="snpb0dGP6pKVzHkLgJxg-51">
          <mxGeometry x="180" y="691" width="180" height="40" as="geometry" />
        </mxCell>
        <mxCell id="snpb0dGP6pKVzHkLgJxg-81" value="" style="endArrow=none;dashed=1;html=1;rounded=0;" edge="1" parent="snpb0dGP6pKVzHkLgJxg-51">
          <mxGeometry width="50" height="50" relative="1" as="geometry">
            <mxPoint x="80" y="710.5" as="sourcePoint" />
            <mxPoint x="180" y="710.5" as="targetPoint" />
          </mxGeometry>
        </mxCell>
        <mxCell id="snpb0dGP6pKVzHkLgJxg-82" value="Text" style="edgeLabel;html=1;align=center;verticalAlign=middle;resizable=0;points=[];" vertex="1" connectable="0" parent="snpb0dGP6pKVzHkLgJxg-81">
          <mxGeometry x="0.02" y="-2" relative="1" as="geometry">
            <mxPoint as="offset" />
          </mxGeometry>
        </mxCell>
        <mxCell id="snpb0dGP6pKVzHkLgJxg-83" value="Filter" style="edgeLabel;html=1;align=center;verticalAlign=middle;resizable=0;points=[];" vertex="1" connectable="0" parent="snpb0dGP6pKVzHkLgJxg-81">
          <mxGeometry x="0.04" y="-3" relative="1" as="geometry">
            <mxPoint as="offset" />
          </mxGeometry>
        </mxCell>
        <mxCell id="snpb0dGP6pKVzHkLgJxg-84" value="Viewer" style="swimlane;whiteSpace=wrap;html=1;" vertex="1" parent="WIyWlLk6GJQsqaUBKTNV-1">
          <mxGeometry x="440" y="3600" width="370" height="840" as="geometry">
            <mxRectangle x="430" y="510" width="140" height="30" as="alternateBounds" />
          </mxGeometry>
        </mxCell>
        <mxCell id="snpb0dGP6pKVzHkLgJxg-85" value="" style="edgeStyle=orthogonalEdgeStyle;rounded=0;orthogonalLoop=1;jettySize=auto;html=1;" edge="1" parent="snpb0dGP6pKVzHkLgJxg-84" source="snpb0dGP6pKVzHkLgJxg-89" target="snpb0dGP6pKVzHkLgJxg-91">
          <mxGeometry relative="1" as="geometry" />
        </mxCell>
        <mxCell id="snpb0dGP6pKVzHkLgJxg-86" value="Yes" style="edgeLabel;html=1;align=center;verticalAlign=middle;resizable=0;points=[];" vertex="1" connectable="0" parent="snpb0dGP6pKVzHkLgJxg-85">
          <mxGeometry x="-0.4" y="-1" relative="1" as="geometry">
            <mxPoint as="offset" />
          </mxGeometry>
        </mxCell>
        <mxCell id="snpb0dGP6pKVzHkLgJxg-87" style="edgeStyle=orthogonalEdgeStyle;rounded=0;orthogonalLoop=1;jettySize=auto;html=1;entryX=1;entryY=0.5;entryDx=0;entryDy=0;" edge="1" parent="snpb0dGP6pKVzHkLgJxg-84" source="snpb0dGP6pKVzHkLgJxg-89" target="snpb0dGP6pKVzHkLgJxg-93">
          <mxGeometry relative="1" as="geometry">
            <Array as="points">
              <mxPoint x="140" y="190" />
              <mxPoint x="140" y="70" />
            </Array>
          </mxGeometry>
        </mxCell>
        <mxCell id="snpb0dGP6pKVzHkLgJxg-88" value="No" style="edgeLabel;html=1;align=center;verticalAlign=middle;resizable=0;points=[];" vertex="1" connectable="0" parent="snpb0dGP6pKVzHkLgJxg-87">
          <mxGeometry x="-0.0323" y="-2" relative="1" as="geometry">
            <mxPoint as="offset" />
          </mxGeometry>
        </mxCell>
        <mxCell id="snpb0dGP6pKVzHkLgJxg-89" value="Login ?" style="rhombus;whiteSpace=wrap;html=1;shadow=0;fontFamily=Helvetica;fontSize=12;align=center;strokeWidth=1;spacing=6;spacingTop=-4;" vertex="1" parent="snpb0dGP6pKVzHkLgJxg-84">
          <mxGeometry x="25" y="150" width="100" height="80" as="geometry" />
        </mxCell>
        <mxCell id="snpb0dGP6pKVzHkLgJxg-90" value="" style="edgeStyle=orthogonalEdgeStyle;rounded=0;orthogonalLoop=1;jettySize=auto;html=1;" edge="1" parent="snpb0dGP6pKVzHkLgJxg-84" source="snpb0dGP6pKVzHkLgJxg-91" target="snpb0dGP6pKVzHkLgJxg-95">
          <mxGeometry relative="1" as="geometry" />
        </mxCell>
        <mxCell id="snpb0dGP6pKVzHkLgJxg-91" value="Home -&amp;gt; Articles Menu" style="whiteSpace=wrap;html=1;shadow=0;strokeWidth=1;spacing=6;spacingTop=-4;" vertex="1" parent="snpb0dGP6pKVzHkLgJxg-84">
          <mxGeometry x="15" y="280" width="120" height="60" as="geometry" />
        </mxCell>
        <mxCell id="snpb0dGP6pKVzHkLgJxg-92" value="" style="edgeStyle=orthogonalEdgeStyle;rounded=0;orthogonalLoop=1;jettySize=auto;html=1;" edge="1" parent="snpb0dGP6pKVzHkLgJxg-84" source="snpb0dGP6pKVzHkLgJxg-93" target="snpb0dGP6pKVzHkLgJxg-89">
          <mxGeometry relative="1" as="geometry" />
        </mxCell>
        <mxCell id="snpb0dGP6pKVzHkLgJxg-93" value="Start" style="ellipse;whiteSpace=wrap;html=1;" vertex="1" parent="snpb0dGP6pKVzHkLgJxg-84">
          <mxGeometry x="30" y="40" width="90" height="60" as="geometry" />
        </mxCell>
        <mxCell id="snpb0dGP6pKVzHkLgJxg-94" style="edgeStyle=orthogonalEdgeStyle;rounded=0;orthogonalLoop=1;jettySize=auto;html=1;entryX=0.5;entryY=0;entryDx=0;entryDy=0;" edge="1" parent="snpb0dGP6pKVzHkLgJxg-84" source="snpb0dGP6pKVzHkLgJxg-95" target="snpb0dGP6pKVzHkLgJxg-96">
          <mxGeometry relative="1" as="geometry" />
        </mxCell>
        <mxCell id="snpb0dGP6pKVzHkLgJxg-95" value="Actions ?" style="rhombus;whiteSpace=wrap;html=1;shadow=0;strokeWidth=1;spacing=6;spacingTop=-4;" vertex="1" parent="snpb0dGP6pKVzHkLgJxg-84">
          <mxGeometry x="35" y="400" width="80" height="80" as="geometry" />
        </mxCell>
        <mxCell id="snpb0dGP6pKVzHkLgJxg-96" value="End" style="ellipse;whiteSpace=wrap;html=1;" vertex="1" parent="snpb0dGP6pKVzHkLgJxg-84">
          <mxGeometry x="30" y="650" width="90" height="60" as="geometry" />
        </mxCell>
        <mxCell id="snpb0dGP6pKVzHkLgJxg-97" value="Open Articles" style="whiteSpace=wrap;html=1;shadow=0;strokeWidth=1;spacing=6;spacingTop=-4;" vertex="1" parent="snpb0dGP6pKVzHkLgJxg-84">
          <mxGeometry x="175" y="480" width="180" height="40" as="geometry" />
        </mxCell>
        <mxCell id="snpb0dGP6pKVzHkLgJxg-98" value="" style="endArrow=none;dashed=1;html=1;rounded=0;" edge="1" parent="snpb0dGP6pKVzHkLgJxg-84">
          <mxGeometry width="50" height="50" relative="1" as="geometry">
            <mxPoint x="75" y="499.5" as="sourcePoint" />
            <mxPoint x="175" y="499.5" as="targetPoint" />
          </mxGeometry>
        </mxCell>
        <mxCell id="snpb0dGP6pKVzHkLgJxg-99" value="Text" style="edgeLabel;html=1;align=center;verticalAlign=middle;resizable=0;points=[];" vertex="1" connectable="0" parent="snpb0dGP6pKVzHkLgJxg-98">
          <mxGeometry x="0.02" y="-2" relative="1" as="geometry">
            <mxPoint as="offset" />
          </mxGeometry>
        </mxCell>
        <mxCell id="snpb0dGP6pKVzHkLgJxg-100" value="Read" style="edgeLabel;html=1;align=center;verticalAlign=middle;resizable=0;points=[];" vertex="1" connectable="0" parent="snpb0dGP6pKVzHkLgJxg-98">
          <mxGeometry x="0.04" y="-3" relative="1" as="geometry">
            <mxPoint as="offset" />
          </mxGeometry>
        </mxCell>
        <mxCell id="snpb0dGP6pKVzHkLgJxg-101" value="Search Articles&amp;nbsp;&lt;span style=&quot;background-color: transparent; color: light-dark(rgb(0, 0, 0), rgb(255, 255, 255));&quot;&gt;-&amp;gt; Result List&lt;/span&gt;" style="whiteSpace=wrap;html=1;shadow=0;strokeWidth=1;spacing=6;spacingTop=-4;" vertex="1" parent="snpb0dGP6pKVzHkLgJxg-84">
          <mxGeometry x="175" y="530" width="180" height="40" as="geometry" />
        </mxCell>
        <mxCell id="snpb0dGP6pKVzHkLgJxg-102" value="" style="endArrow=none;dashed=1;html=1;rounded=0;" edge="1" parent="snpb0dGP6pKVzHkLgJxg-84">
          <mxGeometry width="50" height="50" relative="1" as="geometry">
            <mxPoint x="75" y="549.5" as="sourcePoint" />
            <mxPoint x="175" y="549.5" as="targetPoint" />
          </mxGeometry>
        </mxCell>
        <mxCell id="snpb0dGP6pKVzHkLgJxg-103" value="Text" style="edgeLabel;html=1;align=center;verticalAlign=middle;resizable=0;points=[];" vertex="1" connectable="0" parent="snpb0dGP6pKVzHkLgJxg-102">
          <mxGeometry x="0.02" y="-2" relative="1" as="geometry">
            <mxPoint as="offset" />
          </mxGeometry>
        </mxCell>
        <mxCell id="snpb0dGP6pKVzHkLgJxg-104" value="Search" style="edgeLabel;html=1;align=center;verticalAlign=middle;resizable=0;points=[];" vertex="1" connectable="0" parent="snpb0dGP6pKVzHkLgJxg-102">
          <mxGeometry x="0.04" y="-3" relative="1" as="geometry">
            <mxPoint as="offset" />
          </mxGeometry>
        </mxCell>
        <mxCell id="snpb0dGP6pKVzHkLgJxg-105" value="Filter by Category&lt;span style=&quot;background-color: transparent; color: light-dark(rgb(0, 0, 0), rgb(255, 255, 255));&quot;&gt;&amp;nbsp;-&amp;gt; Result List&lt;/span&gt;" style="whiteSpace=wrap;html=1;shadow=0;strokeWidth=1;spacing=6;spacingTop=-4;" vertex="1" parent="snpb0dGP6pKVzHkLgJxg-84">
          <mxGeometry x="175" y="581" width="180" height="40" as="geometry" />
        </mxCell>
        <mxCell id="snpb0dGP6pKVzHkLgJxg-106" value="" style="endArrow=none;dashed=1;html=1;rounded=0;" edge="1" parent="snpb0dGP6pKVzHkLgJxg-84">
          <mxGeometry width="50" height="50" relative="1" as="geometry">
            <mxPoint x="75" y="600.5" as="sourcePoint" />
            <mxPoint x="175" y="600.5" as="targetPoint" />
          </mxGeometry>
        </mxCell>
        <mxCell id="snpb0dGP6pKVzHkLgJxg-107" value="Text" style="edgeLabel;html=1;align=center;verticalAlign=middle;resizable=0;points=[];" vertex="1" connectable="0" parent="snpb0dGP6pKVzHkLgJxg-106">
          <mxGeometry x="0.02" y="-2" relative="1" as="geometry">
            <mxPoint as="offset" />
          </mxGeometry>
        </mxCell>
        <mxCell id="snpb0dGP6pKVzHkLgJxg-108" value="Filter" style="edgeLabel;html=1;align=center;verticalAlign=middle;resizable=0;points=[];" vertex="1" connectable="0" parent="snpb0dGP6pKVzHkLgJxg-106">
          <mxGeometry x="0.04" y="-3" relative="1" as="geometry">
            <mxPoint as="offset" />
          </mxGeometry>
        </mxCell>
        <mxCell id="snpb0dGP6pKVzHkLgJxg-109" value="&lt;font style=&quot;font-size: 24px;&quot;&gt;3. Articles&lt;/font&gt;" style="text;html=1;align=left;verticalAlign=middle;whiteSpace=wrap;rounded=0;" vertex="1" parent="WIyWlLk6GJQsqaUBKTNV-1">
          <mxGeometry x="40" y="3530" width="140" height="30" as="geometry" />
        </mxCell>
        <mxCell id="snpb0dGP6pKVzHkLgJxg-110" value="Admin" style="swimlane;whiteSpace=wrap;html=1;" vertex="1" parent="WIyWlLk6GJQsqaUBKTNV-1">
          <mxGeometry x="40" y="4800" width="450" height="720" as="geometry">
            <mxRectangle x="430" y="510" width="140" height="30" as="alternateBounds" />
          </mxGeometry>
        </mxCell>
        <mxCell id="snpb0dGP6pKVzHkLgJxg-111" value="" style="edgeStyle=orthogonalEdgeStyle;rounded=0;orthogonalLoop=1;jettySize=auto;html=1;" edge="1" parent="snpb0dGP6pKVzHkLgJxg-110" source="snpb0dGP6pKVzHkLgJxg-115" target="snpb0dGP6pKVzHkLgJxg-117">
          <mxGeometry relative="1" as="geometry" />
        </mxCell>
        <mxCell id="snpb0dGP6pKVzHkLgJxg-112" value="Yes" style="edgeLabel;html=1;align=center;verticalAlign=middle;resizable=0;points=[];" vertex="1" connectable="0" parent="snpb0dGP6pKVzHkLgJxg-111">
          <mxGeometry x="-0.4" y="-1" relative="1" as="geometry">
            <mxPoint as="offset" />
          </mxGeometry>
        </mxCell>
        <mxCell id="snpb0dGP6pKVzHkLgJxg-113" style="edgeStyle=orthogonalEdgeStyle;rounded=0;orthogonalLoop=1;jettySize=auto;html=1;entryX=1;entryY=0.5;entryDx=0;entryDy=0;" edge="1" parent="snpb0dGP6pKVzHkLgJxg-110" source="snpb0dGP6pKVzHkLgJxg-115" target="snpb0dGP6pKVzHkLgJxg-119">
          <mxGeometry relative="1" as="geometry">
            <Array as="points">
              <mxPoint x="215" y="190" />
              <mxPoint x="215" y="70" />
            </Array>
          </mxGeometry>
        </mxCell>
        <mxCell id="snpb0dGP6pKVzHkLgJxg-114" value="No" style="edgeLabel;html=1;align=center;verticalAlign=middle;resizable=0;points=[];" vertex="1" connectable="0" parent="snpb0dGP6pKVzHkLgJxg-113">
          <mxGeometry x="-0.0323" y="-2" relative="1" as="geometry">
            <mxPoint as="offset" />
          </mxGeometry>
        </mxCell>
        <mxCell id="snpb0dGP6pKVzHkLgJxg-115" value="Login ?" style="rhombus;whiteSpace=wrap;html=1;shadow=0;fontFamily=Helvetica;fontSize=12;align=center;strokeWidth=1;spacing=6;spacingTop=-4;" vertex="1" parent="snpb0dGP6pKVzHkLgJxg-110">
          <mxGeometry x="100" y="150" width="100" height="80" as="geometry" />
        </mxCell>
        <mxCell id="snpb0dGP6pKVzHkLgJxg-116" value="" style="edgeStyle=orthogonalEdgeStyle;rounded=0;orthogonalLoop=1;jettySize=auto;html=1;" edge="1" parent="snpb0dGP6pKVzHkLgJxg-110" source="snpb0dGP6pKVzHkLgJxg-117" target="snpb0dGP6pKVzHkLgJxg-121">
          <mxGeometry relative="1" as="geometry" />
        </mxCell>
        <mxCell id="snpb0dGP6pKVzHkLgJxg-117" value="Home -&amp;gt; Account Menu" style="whiteSpace=wrap;html=1;shadow=0;strokeWidth=1;spacing=6;spacingTop=-4;" vertex="1" parent="snpb0dGP6pKVzHkLgJxg-110">
          <mxGeometry x="90" y="280" width="120" height="60" as="geometry" />
        </mxCell>
        <mxCell id="snpb0dGP6pKVzHkLgJxg-118" value="" style="edgeStyle=orthogonalEdgeStyle;rounded=0;orthogonalLoop=1;jettySize=auto;html=1;" edge="1" parent="snpb0dGP6pKVzHkLgJxg-110" source="snpb0dGP6pKVzHkLgJxg-119" target="snpb0dGP6pKVzHkLgJxg-115">
          <mxGeometry relative="1" as="geometry" />
        </mxCell>
        <mxCell id="snpb0dGP6pKVzHkLgJxg-119" value="Start" style="ellipse;whiteSpace=wrap;html=1;" vertex="1" parent="snpb0dGP6pKVzHkLgJxg-110">
          <mxGeometry x="105" y="40" width="90" height="60" as="geometry" />
        </mxCell>
        <mxCell id="snpb0dGP6pKVzHkLgJxg-121" value="Actions ?" style="rhombus;whiteSpace=wrap;html=1;shadow=0;strokeWidth=1;spacing=6;spacingTop=-4;" vertex="1" parent="snpb0dGP6pKVzHkLgJxg-110">
          <mxGeometry x="110" y="400" width="80" height="80" as="geometry" />
        </mxCell>
        <mxCell id="snpb0dGP6pKVzHkLgJxg-122" value="End" style="ellipse;whiteSpace=wrap;html=1;" vertex="1" parent="snpb0dGP6pKVzHkLgJxg-110">
          <mxGeometry x="105" y="650" width="90" height="60" as="geometry" />
        </mxCell>
        <mxCell id="snpb0dGP6pKVzHkLgJxg-124" value="Update User Info / Role -&amp;gt; Save" style="whiteSpace=wrap;html=1;shadow=0;strokeWidth=1;spacing=6;spacingTop=-4;" vertex="1" parent="snpb0dGP6pKVzHkLgJxg-110">
          <mxGeometry x="250" y="535" width="190" height="40" as="geometry" />
        </mxCell>
        <mxCell id="snpb0dGP6pKVzHkLgJxg-125" value="" style="endArrow=none;dashed=1;html=1;rounded=0;" edge="1" parent="snpb0dGP6pKVzHkLgJxg-110">
          <mxGeometry width="50" height="50" relative="1" as="geometry">
            <mxPoint x="150" y="554.5" as="sourcePoint" />
            <mxPoint x="250" y="554.5" as="targetPoint" />
          </mxGeometry>
        </mxCell>
        <mxCell id="snpb0dGP6pKVzHkLgJxg-126" value="Text" style="edgeLabel;html=1;align=center;verticalAlign=middle;resizable=0;points=[];" vertex="1" connectable="0" parent="snpb0dGP6pKVzHkLgJxg-125">
          <mxGeometry x="0.02" y="-2" relative="1" as="geometry">
            <mxPoint as="offset" />
          </mxGeometry>
        </mxCell>
        <mxCell id="snpb0dGP6pKVzHkLgJxg-127" value="Edit" style="edgeLabel;html=1;align=center;verticalAlign=middle;resizable=0;points=[];" vertex="1" connectable="0" parent="snpb0dGP6pKVzHkLgJxg-125">
          <mxGeometry x="0.04" y="-3" relative="1" as="geometry">
            <mxPoint as="offset" />
          </mxGeometry>
        </mxCell>
        <mxCell id="snpb0dGP6pKVzHkLgJxg-128" value="Delete User -&amp;gt; Confirm" style="whiteSpace=wrap;html=1;shadow=0;strokeWidth=1;spacing=6;spacingTop=-4;" vertex="1" parent="snpb0dGP6pKVzHkLgJxg-110">
          <mxGeometry x="250" y="590" width="190" height="40" as="geometry" />
        </mxCell>
        <mxCell id="snpb0dGP6pKVzHkLgJxg-129" value="" style="endArrow=none;dashed=1;html=1;rounded=0;" edge="1" parent="snpb0dGP6pKVzHkLgJxg-110">
          <mxGeometry width="50" height="50" relative="1" as="geometry">
            <mxPoint x="150" y="609.5" as="sourcePoint" />
            <mxPoint x="250" y="609.5" as="targetPoint" />
          </mxGeometry>
        </mxCell>
        <mxCell id="snpb0dGP6pKVzHkLgJxg-130" value="Text" style="edgeLabel;html=1;align=center;verticalAlign=middle;resizable=0;points=[];" vertex="1" connectable="0" parent="snpb0dGP6pKVzHkLgJxg-129">
          <mxGeometry x="0.02" y="-2" relative="1" as="geometry">
            <mxPoint as="offset" />
          </mxGeometry>
        </mxCell>
        <mxCell id="snpb0dGP6pKVzHkLgJxg-131" value="Delete" style="edgeLabel;html=1;align=center;verticalAlign=middle;resizable=0;points=[];" vertex="1" connectable="0" parent="snpb0dGP6pKVzHkLgJxg-129">
          <mxGeometry x="0.04" y="-3" relative="1" as="geometry">
            <mxPoint as="offset" />
          </mxGeometry>
        </mxCell>
        <mxCell id="snpb0dGP6pKVzHkLgJxg-136" value="" style="group" vertex="1" connectable="0" parent="snpb0dGP6pKVzHkLgJxg-110">
          <mxGeometry x="149" y="480" width="291" height="40" as="geometry" />
        </mxCell>
        <mxCell id="snpb0dGP6pKVzHkLgJxg-120" style="edgeStyle=orthogonalEdgeStyle;rounded=0;orthogonalLoop=1;jettySize=auto;html=1;entryX=0.5;entryY=0;entryDx=0;entryDy=0;" edge="1" parent="snpb0dGP6pKVzHkLgJxg-136" source="snpb0dGP6pKVzHkLgJxg-121" target="snpb0dGP6pKVzHkLgJxg-122">
          <mxGeometry relative="1" as="geometry" />
        </mxCell>
        <mxCell id="snpb0dGP6pKVzHkLgJxg-123" value="Input User Details -&amp;gt; Save" style="whiteSpace=wrap;html=1;shadow=0;strokeWidth=1;spacing=6;spacingTop=-4;" vertex="1" parent="snpb0dGP6pKVzHkLgJxg-136">
          <mxGeometry x="101" width="190" height="40" as="geometry" />
        </mxCell>
        <mxCell id="snpb0dGP6pKVzHkLgJxg-132" value="" style="endArrow=none;dashed=1;html=1;rounded=0;" edge="1" parent="snpb0dGP6pKVzHkLgJxg-136">
          <mxGeometry width="50" height="50" relative="1" as="geometry">
            <mxPoint y="19.5" as="sourcePoint" />
            <mxPoint x="100" y="19.5" as="targetPoint" />
          </mxGeometry>
        </mxCell>
        <mxCell id="snpb0dGP6pKVzHkLgJxg-133" value="Text" style="edgeLabel;html=1;align=center;verticalAlign=middle;resizable=0;points=[];" vertex="1" connectable="0" parent="snpb0dGP6pKVzHkLgJxg-132">
          <mxGeometry x="0.02" y="-2" relative="1" as="geometry">
            <mxPoint as="offset" />
          </mxGeometry>
        </mxCell>
        <mxCell id="snpb0dGP6pKVzHkLgJxg-134" value="Add" style="edgeLabel;html=1;align=center;verticalAlign=middle;resizable=0;points=[];" vertex="1" connectable="0" parent="snpb0dGP6pKVzHkLgJxg-132">
          <mxGeometry x="0.04" y="-3" relative="1" as="geometry">
            <mxPoint as="offset" />
          </mxGeometry>
        </mxCell>
        <mxCell id="snpb0dGP6pKVzHkLgJxg-135" value="&lt;font style=&quot;font-size: 24px;&quot;&gt;4. Account Management&lt;/font&gt;" style="text;html=1;align=left;verticalAlign=middle;whiteSpace=wrap;rounded=0;" vertex="1" parent="WIyWlLk6GJQsqaUBKTNV-1">
          <mxGeometry x="41" y="4730" width="270" height="30" as="geometry" />
        </mxCell>
      </root>
    </mxGraphModel>
  </diagram>
</mxfile>
